<?xml version="1.0" encoding="UTF-8" standalone="no"?>
<!-- Created with Inkscape (http://www.inkscape.org/) -->

<svg
   width="210mm"
   height="297mm"
   viewBox="0 0 210 297"
   version="1.1"
   id="svg5"
   inkscape:export-filename="LOGO.svg"
   inkscape:export-xdpi="96"
   inkscape:export-ydpi="96"
   sodipodi:docname="LOGO.svg"
   inkscape:version="1.2.2 (732a01da63, 2022-12-09)"
   xmlns:inkscape="http://www.inkscape.org/namespaces/inkscape"
   xmlns:sodipodi="http://sodipodi.sourceforge.net/DTD/sodipodi-0.dtd"
   xmlns="http://www.w3.org/2000/svg"
   xmlns:svg="http://www.w3.org/2000/svg">
  <sodipodi:namedview
     id="namedview7"
     pagecolor="#ffffff"
     bordercolor="#000000"
     borderopacity="0.25"
     inkscape:showpageshadow="2"
     inkscape:pageopacity="0.0"
     inkscape:pagecheckerboard="0"
     inkscape:deskcolor="#d1d1d1"
     inkscape:document-units="mm"
     showgrid="false"
     inkscape:zoom="0.76969697"
     inkscape:cx="621.02362"
     inkscape:cy="561.90945"
     inkscape:window-width="1920"
     inkscape:window-height="1051"
     inkscape:window-x="-9"
     inkscape:window-y="-9"
     inkscape:window-maximized="1"
     inkscape:current-layer="layer1" />
  <defs
     id="defs2" />
  <g
     inkscape:label="Capa 1"
     inkscape:groupmode="layer"
     id="layer1">
    <g
       id="g1348"
       transform="translate(-8.4666671)">
      <g
         aria-label="v"
         id="text1337"
         style="font-weight:bold;font-size:4.5861px;line-height:0px;-inkscape-font-specification:'sans-serif Bold';fill:#808000;stroke-width:0.874001"
         transform="matrix(23.200454,0,0,23.200454,-535.30557,-2742.9735)">
        <path
           d="m 29.259713,120.49167 -4.022451,5.2868 h -0.32047 l -0.990583,-3.27004 0.963901,0.38359 0.376588,1.58639 1.741433,-3.26661 z"
           style="fill:#008000;stroke-width:0.874"
           id="path1339"
           sodipodi:nodetypes="cccccccc" />
      </g>
      <g
         aria-label="C"
         id="text540"
         style="font-size:4.5861px;line-height:0px;-inkscape-font-specification:sans-serif;fill:#aa4400;stroke-width:0.874001"
         transform="matrix(32.214888,0,0,32.214888,-2011.6275,-2712.327)">
        <path
           d="m 67.782642,89.696516 q -0.371725,0 -0.687467,-0.109726 -0.313503,-0.109726 -0.539673,-0.326938 -0.22617,-0.217213 -0.351571,-0.541913 -0.123162,-0.324699 -0.123162,-0.750167 0,-0.396358 0.118683,-0.718818 0.118684,-0.32246 0.344854,-0.553109 0.217212,-0.221691 0.537433,-0.342613 0.32246,-0.120923 0.703143,-0.120923 0.210494,0 0.378442,0.02463 0.170188,0.02239 0.313503,0.06046 0.150034,0.04255 0.270956,0.09629 0.123162,0.0515 0.214974,0.09629 v 0.80839 h -0.09853 q -0.0627,-0.05374 -0.15899,-0.127641 -0.09405,-0.0739 -0.214974,-0.145555 -0.123162,-0.07166 -0.266477,-0.120922 -0.143316,-0.04927 -0.306785,-0.04927 -0.181384,0 -0.344854,0.05822 -0.163469,0.05598 -0.302306,0.188102 -0.132119,0.12764 -0.214973,0.338135 -0.08061,0.210495 -0.08061,0.510562 0,0.313503 0.08733,0.523998 0.08957,0.210495 0.223931,0.331417 0.136598,0.123162 0.304546,0.176905 0.167948,0.0515 0.331417,0.0515 0.156752,0 0.309025,-0.04703 0.154512,-0.04703 0.284392,-0.127641 0.109726,-0.06494 0.203776,-0.138837 0.09405,-0.0739 0.154513,-0.12764 h 0.08957 v 0.797193 q -0.125401,0.05598 -0.239606,0.105248 -0.114205,0.04926 -0.239606,0.08509 -0.163469,0.04703 -0.306785,0.07166 -0.143315,0.02463 -0.394118,0.02463 z"
           style="font-weight:bold;-inkscape-font-specification:'sans-serif Bold';fill:#aa4400;stroke-width:0.874"
           id="path542" />
      </g>
      <g
         aria-label="D"
         id="text483"
         style="font-size:4.5861px;line-height:0px;-inkscape-font-specification:sans-serif;fill:#808000;stroke-width:0.874001"
         transform="matrix(19.063179,0,0,19.063179,-1284.5059,-1554.8393)">
        <path
           d="m 74.535264,89.086194 q 0,0.45458 -0.199298,0.824065 -0.197059,0.369486 -0.526237,0.573263 -0.228409,0.141076 -0.510562,0.203777 -0.279913,0.0627 -0.738971,0.0627 h -0.841979 v -3.334327 h 0.833022 q 0.488169,0 0.7748,0.07166 0.28887,0.06942 0.488168,0.192581 0.340374,0.212734 0.530716,0.566544 0.190341,0.353811 0.190341,0.83974 z m -0.463537,-0.0067 q 0,-0.391878 -0.136598,-0.660595 -0.136598,-0.268717 -0.407554,-0.423229 -0.197059,-0.111965 -0.41875,-0.154512 -0.221691,-0.04479 -0.530716,-0.04479 h -0.416511 v 2.572963 h 0.416511 q 0.320221,0 0.557588,-0.04703 0.239606,-0.04703 0.438904,-0.174666 0.248563,-0.158991 0.371725,-0.418751 0.125401,-0.259759 0.125401,-0.649399 z"
           style="fill:#808000;stroke-width:0.874"
           id="path535" />
      </g>
    </g>
  </g>
</svg>
